<svg width="24" height="24" viewBox="0 0 24 24" fill="none" xmlns="http://www.w3.org/2000/svg">
<path d="M17 7L11 13M20.387 6.573C20.7729 6.17914 20.9878 5.64899 20.9852 5.09762C20.9826 4.54625 20.7626 4.01817 20.373 3.628C19.9836 3.23792 19.4558 3.01747 18.9046 3.01467C18.3534 3.01186 17.8234 3.22691 17.43 3.613C17.1739 3.35607 16.8553 3.17024 16.5056 3.07377C16.1558 2.97731 15.787 2.97354 15.4354 3.06283C15.0838 3.15212 14.7615 3.3314 14.5002 3.58304C14.2388 3.83468 14.0475 4.15 13.945 4.498C13.5755 4.30853 13.1579 4.23339 12.7455 4.28216C12.3331 4.33092 11.9445 4.50138 11.6294 4.77181C11.3142 5.04224 11.0867 5.40038 10.9759 5.8006C10.865 6.20081 10.8759 6.62497 11.007 7.019C10.6009 7.03599 10.2085 7.17081 9.87768 7.40702C9.54688 7.64323 9.29198 7.97061 9.14407 8.34923C8.99617 8.72784 8.96166 9.14132 9.04475 9.53921C9.12784 9.93711 9.32494 10.3022 9.612 10.59C9.92283 10.9007 10.1528 11.2828 10.2818 11.7029C10.4108 12.1231 10.4349 12.5684 10.352 13H18.3C18.5861 12.9046 18.8482 12.7485 19.0685 12.5424C19.2887 12.3364 19.4619 12.0852 19.5761 11.806C19.6903 11.5269 19.7429 11.2264 19.7303 10.925C19.7177 10.6237 19.6401 10.3286 19.503 10.06C19.8504 9.95631 20.1649 9.76426 20.4158 9.50263C20.6667 9.241 20.8454 8.91874 20.9345 8.56735C21.0236 8.21596 21.02 7.84747 20.924 7.4979C20.828 7.14833 20.643 6.82965 20.387 6.573ZM13.889 21H10.11C9.17622 21 8.25158 20.8161 7.38889 20.4587C6.5262 20.1013 5.74235 19.5775 5.08212 18.9172C4.42188 18.2568 3.89818 17.4729 3.54093 16.6102C3.18368 15.7474 2.99987 14.8228 3 13.889C3 13.398 3.398 13 3.889 13H20.11C20.601 13 20.999 13.398 20.999 13.889C20.9991 14.8228 20.8153 15.7474 20.4581 16.6102C20.1008 17.4729 19.5771 18.2568 18.9169 18.9172C18.2566 19.5775 17.4728 20.1013 16.6101 20.4587C15.7474 20.8161 14.8228 21 13.889 21Z" stroke="black" stroke-width="1.5" stroke-linecap="round" stroke-linejoin="round"/>
<path d="M5.67101 13C4.76817 12.2726 4.18091 11.2249 4.03162 10.0752C3.88233 8.92547 4.18255 7.76249 4.86968 6.82869C5.55682 5.89488 6.57785 5.26232 7.71993 5.06285C8.86202 4.86338 10.037 5.1124 11 5.758" stroke="black" stroke-width="1.5" stroke-linecap="round" stroke-linejoin="round"/>
</svg>
